<?xml version="1.0" encoding="utf-8"?>
<!-- Generator: Adobe Illustrator 15.0.2, SVG Export Plug-In . SVG Version: 6.00 Build 0)  -->
<!DOCTYPE svg PUBLIC "-//W3C//DTD SVG 1.1//EN" "http://www.w3.org/Graphics/SVG/1.1/DTD/svg11.dtd">
<svg version="1.1" id="Layer_1" xmlns="http://www.w3.org/2000/svg" xmlns:xlink="http://www.w3.org/1999/xlink" x="0px" y="0px"
	 width="512px" height="384px" viewBox="0 0 512 384" enable-background="new 0 0 512 384" xml:space="preserve">
<g>
	<path d="M480,64h-64c0,0-18.5,0-32-32c-6.875-16.289-14.344-32-32-32H224c-17.664,0-25.344,15.617-32,32c-12.992,32-32,32-32,32
		h-32c0-17.664-14.336-32-32-32H64c-17.664,0-32,14.336-32,32C14.336,64,0,78.336,0,96v64h177.758
		c22.18-38.109,62.977-64,110.242-64s88.062,25.891,110.25,64H512V96C512,78.336,497.656,64,480,64z M112,128H48
		c-8.828,0-16-7.172-16-16s7.172-16,16-16h16h32h16c8.828,0,16,7.172,16,16S120.828,128,112,128z M192,224c0,53.016,42.984,96,96,96
		s96-42.984,96-96s-42.984-96-96-96S192,170.984,192,224z M416,224c0,70.688-57.312,128-128,128s-128-57.312-128-128
		c0-11.094,1.859-21.719,4.516-32H0v160c0,17.656,14.336,32,32,32h448c17.656,0,32-14.344,32-32V192H411.484
		C414.141,202.281,416,212.906,416,224z"/>
</g>
</svg>
